# xmcd
#
# Track frame offsets: 
#        150
#        23162
#        44351
#        59638
#        79122
#        95479
#        113844
#        132080
#        148052
#        167420
#        185776
#        201947
#        217881
#        235160
#        248984
#        271555
#        291455
#        306958
#        318662
#        341765
#
# Disc length: 4694 seconds
#
# Revision: 0
# Processed by: cddbd v1.5.2PL0 Copyright (c) Steve Scherf et al.
# Submitted via: ExactAudioCopy v0.99pb5
#
DISCID=30125414
DTITLE=Юрий Лоза - 39 Давно Любимых Вещей CD 1
DYEAR=2008
DGENRE=Ballad
TTITLE0=Плот
TTITLE1=Пой моя гитара
TTITLE2=Девочка в баре
TTITLE3=Телефон-рок
TTITLE4=Исполнительный  лист
TTITLE5=Гараж
TTITLE6=Цыганская душа
TTITLE7=Сто часов
TTITLE8=Опять
TTITLE9=Зима
TTITLE10=Песенка проститутки
TTITLE11=Новый год
TTITLE12=Пиво
TTITLE13=У моей зазнобы
TTITLE14=Что сказано, то сказано
TTITLE15=Я умею мечтать
TTITLE16=Баба Люба
TTITLE17=Мать пишет
TTITLE18=Так я устроен
TTITLE19=Памяти Высоцкого
EXTD=
EXTT0=
EXTT1=
EXTT2=
EXTT3=
EXTT4=
EXTT5=
EXTT6=
EXTT7=
EXTT8=
EXTT9=
EXTT10=
EXTT11=
EXTT12=
EXTT13=
EXTT14=
EXTT15=
EXTT16=
EXTT17=
EXTT18=
EXTT19=
PLAYORDER=
